<?xml version="1.0" encoding="UTF-8" standalone="no"?>
<!DOCTYPE svg PUBLIC "-//W3C//DTD SVG 1.1//EN" "http://www.w3.org/Graphics/SVG/1.1/DTD/svg11.dtd">
<svg version="1.1" xmlns="http://www.w3.org/2000/svg" xmlns:xlink="http://www.w3.org/1999/xlink" preserveAspectRatio="xMidYMid meet" viewBox="0 0 640 640" width="640" height="640"><defs><path d="M111.75 96.33L28.48 387L240.06 610.67L534.91 543.67L618.17 253L406.6 29.33L111.75 96.33Z" id="b3L7ynZJj"></path><path d="M404.55 12.86C413.47 5.66 426.54 7.05 433.74 15.97C475.28 67.41 586.86 205.59 628.4 257.03C635.6 265.95 634.21 279.02 625.29 286.22C621.33 289.42 625.59 285.98 621.62 289.18C612.7 296.38 599.64 294.99 592.43 286.07C550.89 234.63 439.32 96.46 397.78 45.01C390.57 36.1 391.97 23.03 400.89 15.83C404.85 12.63 400.59 16.06 404.55 12.86Z" id="a3jiWiHVwz"></path><path d="M97.81 109.38C95.01 98.4 101.65 87.24 112.63 84.44C175.94 68.32 346.02 25.02 409.34 8.89C420.32 6.1 431.49 12.73 434.28 23.71C435.55 28.69 434.3 23.77 435.56 28.75C438.36 39.73 431.73 50.9 420.75 53.69C357.43 69.81 187.35 113.12 124.03 129.24C113.05 132.03 101.89 125.4 99.09 114.42C97.82 109.44 99.08 114.36 97.81 109.38Z" id="bfxzMJ19q"></path><path d="M126.76 88.5C137.69 91.48 144.13 102.76 141.15 113.68C123.94 176.72 77.73 346.03 60.52 409.06C57.54 419.99 46.26 426.43 35.33 423.45C30.37 422.09 35.27 423.43 30.31 422.08C19.38 419.09 12.94 407.81 15.92 396.89C33.13 333.85 79.35 164.54 96.56 101.51C99.54 90.58 110.82 84.14 121.74 87.12C126.71 88.48 121.8 87.14 126.76 88.5Z" id="dooVcLKfi"></path><path d="M618.75 257.72C629.13 260.62 635.18 271.39 632.28 281.76C615.54 341.6 570.58 502.32 553.84 562.16C550.94 572.54 540.18 578.59 529.81 575.69C524.66 574.25 528 575.19 522.86 573.75C512.48 570.84 506.42 560.08 509.33 549.71C526.06 489.87 571.03 329.14 587.76 269.31C590.67 258.93 601.43 252.88 611.8 255.78C616.95 257.22 613.61 256.28 618.75 257.72Z" id="a2J5dMgSZ"></path><path d="M209.51 608.95C207.53 597.8 214.97 587.16 226.13 585.18C290.46 573.78 463.28 543.17 527.62 531.77C538.77 529.8 549.42 537.24 551.39 548.39C552.29 553.46 551.4 548.45 552.3 553.52C554.28 564.67 546.83 575.32 535.68 577.29C471.34 588.69 298.53 619.3 234.19 630.7C223.04 632.67 212.39 625.23 210.42 614.08C209.52 609.01 210.41 614.02 209.51 608.95Z" id="d4HidNACJz"></path><path d="M27.3 383.85C35.01 376.71 47.06 377.18 54.19 384.9C95.36 429.42 205.94 549 247.11 593.52C254.25 601.24 253.78 613.28 246.06 620.42C242.06 624.11 244.06 622.26 240.07 625.96C232.35 633.09 220.31 632.62 213.17 624.9C172 580.39 61.42 460.81 20.25 416.29C13.12 408.57 13.59 396.53 21.31 389.39C25.3 385.7 23.3 387.54 27.3 383.85Z" id="bdYCUJ6bE"></path></defs><g><g><g><use xlink:href="#b3L7ynZJj" opacity="1" fill="#623f99" fill-opacity="1"></use></g><g><use xlink:href="#a3jiWiHVwz" opacity="1" fill="#ffc20e" fill-opacity="1"></use></g><g><use xlink:href="#bfxzMJ19q" opacity="1" fill="#ffc20e" fill-opacity="1"></use></g><g><use xlink:href="#dooVcLKfi" opacity="1" fill="#ffc20e" fill-opacity="1"></use></g><g><use xlink:href="#a2J5dMgSZ" opacity="1" fill="#ffc20e" fill-opacity="1"></use></g><g><use xlink:href="#d4HidNACJz" opacity="1" fill="#ffc20e" fill-opacity="1"></use></g><g><use xlink:href="#bdYCUJ6bE" opacity="1" fill="#ffc20e" fill-opacity="1"></use></g></g></g></svg>